<svg xmlns="http://www.w3.org/2000/svg" version="1.1" xmlns:xlink="http://www.w3.org/1999/xlink" xmlns:svgjs="http://svgjs.dev/svgjs" width="1000" height="623" viewBox="0 0 1000 623"><g transform="matrix(1,0,0,1,-0.6060606060606233,0.2522267206477409)"><svg viewBox="0 0 396 247" data-background-color="#ffffff" preserveAspectRatio="xMidYMid meet" height="623" width="1000" xmlns="http://www.w3.org/2000/svg" xmlns:xlink="http://www.w3.org/1999/xlink"><g id="tight-bounds" transform="matrix(1,0,0,1,0.2400000000000091,-0.09999999999999432)"><svg viewBox="0 0 395.52 247.2" height="247.2" width="395.52"><g><svg></svg></g><g><svg viewBox="0 0 395.52 247.2" height="247.2" width="395.52"><g transform="matrix(1,0,0,1,39.55199999999999,100.7366075949367)"><svg viewBox="0 0 316.416 45.72678481012658" height="45.72678481012658" width="316.416"><g><svg viewBox="0 0 316.416 45.72678481012658" height="45.72678481012658" width="316.416"><g><svg viewBox="0 0 316.416 45.72678481012658" height="45.72678481012658" width="316.416"><g><svg viewBox="0 0 316.416 45.72678481012658" height="45.72678481012658" width="316.416"><g id="textblocktransform"><svg viewBox="0 0 316.416 45.72678481012658" height="45.72678481012658" width="316.416" id="textblock"><g><svg viewBox="0 0 316.416 45.72678481012658" height="45.72678481012658" width="316.416"><g transform="matrix(1,0,0,1,0,0)"><svg width="316.416" viewBox="-0.10000000149011612 -33.45000076293945 231.4300079345703 33.45000076293945" height="45.72678481012658" data-palette-color="#f1a877"><path d="M10.69-33.45L18.21-33.45Q20.68-33.45 22.68-32.71 24.68-31.98 26.09-30.71 27.49-29.44 28.25-27.75 29-26.05 29-24.15L29-24.15 29-9.3Q29-7.4 28.25-5.7 27.49-4 26.09-2.73 24.68-1.46 22.68-0.73 20.68 0 18.21 0L18.21 0 10.69 0Q8.23 0 6.23-0.73 4.22-1.46 2.82-2.73 1.42-4 0.66-5.7-0.1-7.4-0.1-9.3L-0.1-9.3-0.1-24.15Q-0.1-26.05 0.66-27.75 1.42-29.44 2.82-30.71 4.22-31.98 6.23-32.71 8.23-33.45 10.69-33.45L10.69-33.45ZM22.8-14.99L22.8-18.7 22.46-20.8 20.9-22.34 18.36-22.61 12.89-22.61 11.4-22.9Q11.28-23.32 11.23-23.65 11.18-23.97 11.06-24.34L11.06-24.34 11.06-26.9 11.4-28.34 13.01-28.66 19.21-28.66 21.51-28.2 22.09-30.86 19.26-31.25 12.84-31.25 10.4-30.91 8.81-29.35 8.5-27.29 8.5-23.95 8.81-21.9 10.4-20.36 12.84-20.04 18.36-20.04 19.85-19.8Q19.92-19.43 20.02-19.12 20.12-18.8 20.19-18.46L20.19-18.46 20.19-15.26Q20.14-14.94 20.03-14.58 19.92-14.21 19.85-13.89L19.85-13.89 18.26-13.65 12.21-13.65 9.81-14.04 9.2-11.4 12.06-11.06 18.41-11.06 20.9-11.35 22.46-12.89 22.8-14.99ZM48.12-13.79L45.21-30.44 42.8-30.44 39.91-13.79 39.35-13.6 38.72-13.75 37.06-31.25 34.25-30.76 36.2-12.84 37.72-11.35 39.3-10.96 40.92-11.35 42.4-12.84 44.02-23.61 45.6-12.84 47.12-11.35 48.7-10.96 50.31-11.35 51.8-12.84 53.76-30.76 50.95-31.25 49.31-13.75 48.65-13.6 48.12-13.79ZM47.12 0L39.6 0Q37.13 0 35.13-0.73 33.13-1.46 31.72-2.73 30.32-4 29.56-5.7 28.81-7.4 28.81-9.3L28.81-9.3 28.81-24.15Q28.81-26.05 29.56-27.75 30.32-29.44 31.72-30.71 33.13-31.98 35.13-32.71 37.13-33.45 39.6-33.45L39.6-33.45 47.12-33.45Q49.58-33.45 51.58-32.71 53.59-31.98 54.99-30.71 56.39-29.44 57.15-27.75 57.91-26.05 57.91-24.15L57.91-24.15 57.91-9.3Q57.91-7.4 57.15-5.7 56.39-4 54.99-2.73 53.59-1.46 51.58-0.73 49.58 0 47.12 0L47.12 0ZM68.5-33.45L76.02-33.45Q78.49-33.45 80.49-32.71 82.49-31.98 83.89-30.71 85.3-29.44 86.05-27.75 86.81-26.05 86.81-24.15L86.81-24.15 86.81-9.3Q86.81-7.4 86.05-5.7 85.3-4 83.89-2.73 82.49-1.46 80.49-0.73 78.49 0 76.02 0L76.02 0 68.5 0Q66.04 0 64.03-0.73 62.03-1.46 60.63-2.73 59.22-4 58.47-5.7 57.71-7.4 57.71-9.3L57.71-9.3 57.71-24.15Q57.71-26.05 58.47-27.75 59.22-29.44 60.63-30.71 62.03-31.98 64.03-32.71 66.04-33.45 68.5-33.45L68.5-33.45ZM77.8-16.26L78.27-11.06 81.05-11.06 79.12-29.25 77.61-30.76 74.36-31.25 71.75-31.25 68.5-30.76 67.01-29.25 65.01-11.06 67.91-11.06 68.31-16.26 68.55-18.51 77.56-18.51 77.8-16.26ZM74.26-28.66L76.56-28.3Q76.73-26.32 76.95-24.56 77.17-22.8 77.36-20.85L77.36-20.85 68.77-20.85 69.5-28.3Q70.19-28.37 70.69-28.47 71.19-28.56 71.87-28.66L71.87-28.66 74.26-28.66ZM97.4-33.45L104.92-33.45Q107.39-33.45 109.39-32.71 111.39-31.98 112.8-30.71 114.2-29.44 114.96-27.75 115.72-26.05 115.72-24.15L115.72-24.15 115.72-9.3Q115.72-7.4 114.96-5.7 114.2-4 112.8-2.73 111.39-1.46 109.39-0.73 107.39 0 104.92 0L104.92 0 97.4 0Q94.94 0 92.94-0.73 90.93-1.46 89.53-2.73 88.13-4 87.37-5.7 86.61-7.4 86.61-9.3L86.61-9.3 86.61-24.15Q86.61-26.05 87.37-27.75 88.13-29.44 89.53-30.71 90.93-31.98 92.94-32.71 94.94-33.45 97.4-33.45L97.4-33.45ZM109.42-22.19L109.42-27.29 109.07-29.35 107.51-30.91 105.02-31.25 95.92-31.25 95.92-11.06 98.45-11.06 98.45-18.26 105.02-18.26 107.51-18.55 109.07-20.09 109.42-22.19ZM106.8-22.46L106.46-21.09 104.88-20.85 98.45-20.85 98.45-28.66 104.88-28.66 106.56-28.39 106.8-26.95 106.8-22.46ZM126.31-33.45L133.83-33.45Q136.29-33.45 138.3-32.71 140.3-31.98 141.7-30.71 143.11-29.44 143.86-27.75 144.62-26.05 144.62-24.15L144.62-24.15 144.62-9.3Q144.62-7.4 143.86-5.7 143.11-4 141.7-2.73 140.3-1.46 138.3-0.73 136.29 0 133.83 0L133.83 0 126.31 0Q123.84 0 121.84-0.73 119.84-1.46 118.43-2.73 117.03-4 116.27-5.7 115.52-7.4 115.52-9.3L115.52-9.3 115.52-24.15Q115.52-26.05 116.27-27.75 117.03-29.44 118.43-30.71 119.84-31.98 121.84-32.71 123.84-33.45 126.31-33.45L126.31-33.45ZM138.42-14.99L138.42-18.7 138.08-20.8 136.51-22.34 133.97-22.61 128.51-22.61 127.02-22.9Q126.89-23.32 126.85-23.65 126.8-23.97 126.67-24.34L126.67-24.34 126.67-26.9 127.02-28.34 128.63-28.66 134.83-28.66 137.12-28.2 137.71-30.86 134.88-31.25 128.46-31.25 126.02-30.91 124.43-29.35 124.11-27.29 124.11-23.95 124.43-21.9 126.02-20.36 128.46-20.04 133.97-20.04 135.46-19.8Q135.54-19.43 135.63-19.12 135.73-18.8 135.81-18.46L135.81-18.46 135.81-15.26Q135.76-14.94 135.65-14.58 135.54-14.21 135.46-13.89L135.46-13.89 133.88-13.65 127.82-13.65 125.43-14.04 124.82-11.4 127.68-11.06 134.02-11.06 136.51-11.35 138.08-12.89 138.42-14.99ZM167.37-28.66L167.37-31.25 153.26-31.25 153.26-28.66 159.02-28.66 159.02-11.06 161.63-11.06 161.63-28.66 167.37-28.66ZM155.21-33.45L162.73-33.45Q165.2-33.45 167.2-32.71 169.2-31.98 170.61-30.71 172.01-29.44 172.77-27.75 173.52-26.05 173.52-24.15L173.52-24.15 173.52-9.3Q173.52-7.4 172.77-5.7 172.01-4 170.61-2.73 169.2-1.46 167.2-0.73 165.2 0 162.73 0L162.73 0 155.21 0Q152.75 0 150.74-0.73 148.74-1.46 147.34-2.73 145.93-4 145.18-5.7 144.42-7.4 144.42-9.3L144.42-9.3 144.42-24.15Q144.42-26.05 145.18-27.75 145.93-29.44 147.34-30.71 148.74-31.98 150.74-32.71 152.75-33.45 155.21-33.45L155.21-33.45ZM195.52-11.06L195.52-13.65 185.78-13.65 185.78-19.85 193.93-19.85 193.93-22.41 185.78-22.41 185.78-28.66 195.18-28.66 195.18-31.25 183.24-31.25 183.24-11.06 195.52-11.06ZM184.12-33.45L191.64-33.45Q194.1-33.45 196.1-32.71 198.11-31.98 199.51-30.71 200.91-29.44 201.67-27.75 202.43-26.05 202.43-24.15L202.43-24.15 202.43-9.3Q202.43-7.4 201.67-5.7 200.91-4 199.51-2.73 198.11-1.46 196.1-0.73 194.1 0 191.64 0L191.64 0 184.12 0Q181.65 0 179.65-0.73 177.65-1.46 176.24-2.73 174.84-4 174.08-5.7 173.32-7.4 173.32-9.3L173.32-9.3 173.32-24.15Q173.32-26.05 174.08-27.75 174.84-29.44 176.24-30.71 177.65-31.98 179.65-32.71 181.65-33.45 184.12-33.45L184.12-33.45ZM213.02-33.45L220.54-33.45Q223-33.45 225.01-32.71 227.01-31.98 228.41-30.71 229.82-29.44 230.57-27.75 231.33-26.05 231.33-24.15L231.33-24.15 231.33-9.3Q231.33-7.4 230.57-5.7 229.82-4 228.41-2.73 227.01-1.46 225.01-0.73 223 0 220.54 0L220.54 0 213.02 0Q210.55 0 208.55-0.73 206.55-1.46 205.15-2.73 203.74-4 202.99-5.7 202.23-7.4 202.23-9.3L202.23-9.3 202.23-24.15Q202.23-26.05 202.99-27.75 203.74-29.44 205.15-30.71 206.55-31.98 208.55-32.71 210.55-33.45 213.02-33.45L213.02-33.45ZM221.42-18.41L221.78-17.09 221.78-11.06 224.37-11.06 224.37-17.36 223.52-19.6 220.73-20.61 223.42-21.9 224.18-24.1 224.18-26.81 223.88-28.86 222.27-30.91 219.83-31.25 210.72-31.25 210.72-11.06 213.34-11.06 213.34-19.19 219.68-19.19 221.42-18.41ZM213.34-28.66L219.68-28.66 221.42-27.91 221.59-26.49 221.59-23.9 221.22-22.56 219.68-21.8 213.34-21.8 213.34-28.66Z" opacity="1" transform="matrix(1,0,0,1,0,0)" fill="#f1a877" class="undefined-text-0" data-fill-palette-color="primary" id="text-0"></path></svg></g></svg></g></svg></g></svg></g></svg></g></svg></g></svg></g><g mask="url(#b6cd4f00-0292-4c94-a718-ac424d66bc9a)"><g transform="matrix(3.0085889570552147, 0, 0, 3.0085889570552147, 90.20294478527606, 1)"><svg xmlns="http://www.w3.org/2000/svg" xmlns:xlink="http://www.w3.org/1999/xlink" version="1.1" x="0" y="0" viewBox="15.5 10.5 71.5 81.5" style="enable-background:new 0 0 100 100;" xml:space="preserve" height="81.5" width="71.5" class="icon-none" data-fill-palette-color="accent" id="none"><path d="M69.571 89.158c-0.094 0.094-0.221 0.146-0.354 0.146H33c-0.133 0-0.26-0.053-0.354-0.146l-1.332-1.332H15.5V92H87v-4.174H70.902L69.571 89.158z" fill="#9d5c29" data-fill-palette-color="accent"></path><path d="M82 37.587v-3.435h-7.108v3.504c0.072-0.04 0.151-0.069 0.239-0.069H82z" fill="#9d5c29" data-fill-palette-color="accent"></path><path d="M28.065 28.239H25.5V30c0 0.276-0.224 0.5-0.5 0.5h-4.5v2.652h7.565V28.239z" fill="#9d5c29" data-fill-palette-color="accent"></path><rect x="20.5" y="34.152" width="7.565" height="3.435" fill="#9d5c29" data-fill-palette-color="accent"></rect><path d="M82 38.587h-6.869c-0.088 0-0.167-0.029-0.239-0.069v3.504H77.5c0.276 0 0.5 0.224 0.5 0.5v9.326c0 0.276-0.224 0.5-0.5 0.5h-7.832c-3.121 6.297-10.365 10.348-18.56 10.348S35.67 58.645 32.55 52.348H25c-0.276 0-0.5-0.224-0.5-0.5v-9.326c0-0.276 0.224-0.5 0.5-0.5h3.065v-3.435H20.5v26.804H82V38.587z" fill="#9d5c29" data-fill-palette-color="accent"></path><path d="M31.875 86.973l1.332 1.332h35.804l1.331-1.332c0.094-0.094 0.221-0.146 0.354-0.146H86.87l-4.767-20.435H20.397L15.63 86.826h15.892C31.654 86.826 31.781 86.879 31.875 86.973zM31.761 76.239c0-0.695 0.706-1.239 1.608-1.239s1.609 0.544 1.609 1.239-0.707 1.239-1.609 1.239S31.761 76.934 31.761 76.239zM35.587 81.174c-0.902 0-1.608-0.544-1.608-1.239s0.706-1.239 1.608-1.239 1.608 0.544 1.608 1.239S36.489 81.174 35.587 81.174zM36.195 76.239c0-0.695 0.707-1.239 1.609-1.239s1.608 0.544 1.608 1.239-0.706 1.239-1.608 1.239S36.195 76.934 36.195 76.239zM38.413 79.935c0-0.695 0.706-1.239 1.608-1.239s1.609 0.544 1.609 1.239-0.707 1.239-1.609 1.239S38.413 80.629 38.413 79.935zM60.848 79.935c0 0.695-0.706 1.239-1.608 1.239s-1.608-0.544-1.608-1.239 0.706-1.239 1.608-1.239S60.848 79.24 60.848 79.935zM59.5 76.239c0-0.695 0.706-1.239 1.608-1.239s1.609 0.544 1.609 1.239-0.707 1.239-1.609 1.239S59.5 76.934 59.5 76.239zM56.392 77.478c-0.902 0-1.609-0.544-1.609-1.239S55.489 75 56.392 75 58 75.544 58 76.239 57.294 77.478 56.392 77.478zM55.674 79.935c0 0.695-0.706 1.239-1.608 1.239s-1.609-0.544-1.609-1.239 0.707-1.239 1.609-1.239S55.674 79.24 55.674 79.935zM51.848 77.478c-0.902 0-1.608-0.544-1.608-1.239S50.945 75 51.848 75s1.608 0.544 1.608 1.239S52.75 77.478 51.848 77.478zM51.239 79.935c0 0.695-0.706 1.239-1.608 1.239s-1.609-0.544-1.609-1.239 0.707-1.239 1.609-1.239S51.239 79.24 51.239 79.935zM47.413 77.478c-0.902 0-1.608-0.544-1.608-1.239S46.511 75 47.413 75s1.608 0.544 1.608 1.239S48.315 77.478 47.413 77.478zM46.065 79.935c0 0.695-0.707 1.239-1.609 1.239s-1.608-0.544-1.608-1.239 0.706-1.239 1.608-1.239S46.065 79.24 46.065 79.935zM42.239 77.478c-0.902 0-1.608-0.544-1.608-1.239S41.337 75 42.239 75s1.608 0.544 1.608 1.239S43.142 77.478 42.239 77.478zM62.5 84.87H40c-0.276 0-0.5-0.224-0.5-0.5s0.224-0.5 0.5-0.5h22.5c0.276 0 0.5 0.224 0.5 0.5S62.776 84.87 62.5 84.87zM63.674 81.174c-0.902 0-1.608-0.544-1.608-1.239s0.706-1.239 1.608-1.239 1.608 0.544 1.608 1.239S64.576 81.174 63.674 81.174zM64.282 76.239c0-0.695 0.707-1.239 1.609-1.239s1.608 0.544 1.608 1.239-0.706 1.239-1.608 1.239S64.282 76.934 64.282 76.239zM68.108 81.174c-0.902 0-1.608-0.544-1.608-1.239s0.706-1.239 1.608-1.239 1.609 0.544 1.609 1.239S69.011 81.174 68.108 81.174zM70.326 77.478c-0.902 0-1.608-0.544-1.608-1.239S69.424 75 70.326 75s1.608 0.544 1.608 1.239S71.229 77.478 70.326 77.478zM72.544 81.174c-0.902 0-1.609-0.544-1.609-1.239s0.707-1.239 1.609-1.239 1.608 0.544 1.608 1.239S73.446 81.174 72.544 81.174zM73.152 76.239c0-0.695 0.706-1.239 1.608-1.239s1.608 0.544 1.608 1.239-0.706 1.239-1.608 1.239S73.152 76.934 73.152 76.239zM76.979 81.174c-0.902 0-1.609-0.544-1.609-1.239s0.707-1.239 1.609-1.239 1.608 0.544 1.608 1.239S77.881 81.174 76.979 81.174zM77.718 72.783c0.902 0 1.608 0.544 1.608 1.239s-0.706 1.239-1.608 1.239-1.609-0.544-1.609-1.239S76.815 72.783 77.718 72.783zM74.761 67.609c0.902 0 1.608 0.544 1.608 1.239s-0.706 1.239-1.608 1.239-1.608-0.544-1.608-1.239S73.858 67.609 74.761 67.609zM74.152 72.543c0 0.695-0.706 1.239-1.608 1.239s-1.609-0.544-1.609-1.239 0.707-1.239 1.609-1.239S74.152 71.849 74.152 72.543zM70.326 67.609c0.902 0 1.608 0.544 1.608 1.239s-0.706 1.239-1.608 1.239-1.608-0.544-1.608-1.239S69.424 67.609 70.326 67.609zM69.718 72.543c0 0.695-0.707 1.239-1.609 1.239S66.5 73.238 66.5 72.543s0.706-1.239 1.608-1.239S69.718 71.849 69.718 72.543zM65.892 67.609c0.902 0 1.608 0.544 1.608 1.239s-0.706 1.239-1.608 1.239-1.609-0.544-1.609-1.239S64.989 67.609 65.892 67.609zM65.282 72.543c0 0.695-0.706 1.239-1.608 1.239s-1.608-0.544-1.608-1.239 0.706-1.239 1.608-1.239S65.282 71.849 65.282 72.543zM61.456 67.609c0.902 0 1.609 0.544 1.609 1.239s-0.707 1.239-1.609 1.239-1.608-0.544-1.608-1.239S60.554 67.609 61.456 67.609zM60.848 72.543c0 0.695-0.706 1.239-1.608 1.239s-1.608-0.544-1.608-1.239 0.706-1.239 1.608-1.239S60.848 71.849 60.848 72.543zM57.021 67.609c0.902 0 1.609 0.544 1.609 1.239s-0.707 1.239-1.609 1.239-1.608-0.544-1.608-1.239S56.119 67.609 57.021 67.609zM56.413 72.543c0 0.695-0.706 1.239-1.608 1.239s-1.609-0.544-1.609-1.239 0.707-1.239 1.609-1.239S56.413 71.849 56.413 72.543zM52.587 67.609c0.902 0 1.608 0.544 1.608 1.239s-0.706 1.239-1.608 1.239-1.608-0.544-1.608-1.239S51.685 67.609 52.587 67.609zM51.979 72.543c0 0.695-0.707 1.239-1.609 1.239s-1.608-0.544-1.608-1.239 0.706-1.239 1.608-1.239S51.979 71.849 51.979 72.543zM48.152 67.609c0.902 0 1.608 0.544 1.608 1.239s-0.706 1.239-1.608 1.239-1.608-0.544-1.608-1.239S47.25 67.609 48.152 67.609zM47.544 72.543c0 0.695-0.707 1.239-1.609 1.239s-1.608-0.544-1.608-1.239 0.706-1.239 1.608-1.239S47.544 71.849 47.544 72.543zM43.718 67.609c0.902 0 1.608 0.544 1.608 1.239s-0.706 1.239-1.608 1.239-1.609-0.544-1.609-1.239S42.815 67.609 43.718 67.609zM43.108 72.543c0 0.695-0.706 1.239-1.608 1.239s-1.608-0.544-1.608-1.239 0.706-1.239 1.608-1.239S43.108 71.849 43.108 72.543zM39.282 67.609c0.902 0 1.609 0.544 1.609 1.239s-0.707 1.239-1.609 1.239-1.608-0.544-1.608-1.239S38.38 67.609 39.282 67.609zM38.674 72.543c0 0.695-0.706 1.239-1.608 1.239s-1.609-0.544-1.609-1.239 0.707-1.239 1.609-1.239S38.674 71.849 38.674 72.543zM34.848 67.609c0.902 0 1.608 0.544 1.608 1.239s-0.706 1.239-1.608 1.239-1.608-0.544-1.608-1.239S33.945 67.609 34.848 67.609zM34.239 72.543c0 0.695-0.706 1.239-1.608 1.239s-1.609-0.544-1.609-1.239 0.707-1.239 1.609-1.239S34.239 71.849 34.239 72.543zM30.413 67.609c0.902 0 1.608 0.544 1.608 1.239s-0.706 1.239-1.608 1.239-1.608-0.544-1.608-1.239S29.511 67.609 30.413 67.609zM25.979 81.174c-0.902 0-1.609-0.544-1.609-1.239s0.707-1.239 1.609-1.239 1.608 0.544 1.608 1.239S26.881 81.174 25.979 81.174zM27.326 76.239c0-0.695 0.706-1.239 1.608-1.239s1.609 0.544 1.609 1.239-0.707 1.239-1.609 1.239S27.326 76.934 27.326 76.239zM28.805 79.935c0-0.695 0.706-1.239 1.608-1.239s1.608 0.544 1.608 1.239-0.706 1.239-1.608 1.239S28.805 80.629 28.805 79.935z" fill="#9d5c29" data-fill-palette-color="accent"></path><path d="M82 30.5h-4.5c-0.276 0-0.5-0.224-0.5-0.5v-1.761h-2.108v4.913H82V30.5z" fill="#9d5c29" data-fill-palette-color="accent"></path><path d="M30.413 69.087c0.405 0 0.608-0.193 0.608-0.239 0-0.045-0.203-0.239-0.608-0.239s-0.608 0.193-0.608 0.239C29.805 68.894 30.008 69.087 30.413 69.087z" fill="#9d5c29" data-fill-palette-color="accent"></path><path d="M34.848 69.087c0.405 0 0.608-0.193 0.608-0.239 0-0.045-0.203-0.239-0.608-0.239s-0.608 0.193-0.608 0.239C34.239 68.894 34.442 69.087 34.848 69.087z" fill="#9d5c29" data-fill-palette-color="accent"></path><path d="M39.282 69.087c0.406 0 0.609-0.193 0.609-0.239 0-0.045-0.203-0.239-0.609-0.239-0.405 0-0.608 0.193-0.608 0.239C38.674 68.894 38.877 69.087 39.282 69.087z" fill="#9d5c29" data-fill-palette-color="accent"></path><path d="M43.718 69.087c0.405 0 0.608-0.193 0.608-0.239 0-0.045-0.203-0.239-0.608-0.239-0.406 0-0.609 0.193-0.609 0.239C43.108 68.894 43.312 69.087 43.718 69.087z" fill="#9d5c29" data-fill-palette-color="accent"></path><path d="M48.152 69.087c0.405 0 0.608-0.193 0.608-0.239 0-0.045-0.203-0.239-0.608-0.239s-0.608 0.193-0.608 0.239C47.544 68.894 47.747 69.087 48.152 69.087z" fill="#9d5c29" data-fill-palette-color="accent"></path><path d="M52.587 69.087c0.405 0 0.608-0.193 0.608-0.239 0-0.045-0.203-0.239-0.608-0.239s-0.608 0.193-0.608 0.239C51.979 68.894 52.182 69.087 52.587 69.087z" fill="#9d5c29" data-fill-palette-color="accent"></path><path d="M57.021 69.087c0.406 0 0.609-0.193 0.609-0.239 0-0.045-0.203-0.239-0.609-0.239-0.405 0-0.608 0.193-0.608 0.239C56.413 68.894 56.616 69.087 57.021 69.087z" fill="#9d5c29" data-fill-palette-color="accent"></path><path d="M61.456 69.087c0.406 0 0.609-0.193 0.609-0.239 0-0.045-0.203-0.239-0.609-0.239-0.405 0-0.608 0.193-0.608 0.239C60.848 68.894 61.051 69.087 61.456 69.087z" fill="#9d5c29" data-fill-palette-color="accent"></path><path d="M65.892 69.087c0.405 0 0.608-0.193 0.608-0.239 0-0.045-0.203-0.239-0.608-0.239-0.406 0-0.609 0.193-0.609 0.239C65.282 68.894 65.485 69.087 65.892 69.087z" fill="#9d5c29" data-fill-palette-color="accent"></path><path d="M70.326 69.087c0.405 0 0.608-0.193 0.608-0.239 0-0.045-0.203-0.239-0.608-0.239s-0.608 0.193-0.608 0.239C69.718 68.894 69.921 69.087 70.326 69.087z" fill="#9d5c29" data-fill-palette-color="accent"></path><path d="M74.761 69.087c0.405 0 0.608-0.193 0.608-0.239 0-0.045-0.203-0.239-0.608-0.239s-0.608 0.193-0.608 0.239C74.152 68.894 74.355 69.087 74.761 69.087z" fill="#9d5c29" data-fill-palette-color="accent"></path><path d="M72.544 72.783c0.405 0 0.608-0.193 0.608-0.239s-0.203-0.239-0.608-0.239c-0.406 0-0.609 0.193-0.609 0.239S72.138 72.783 72.544 72.783z" fill="#9d5c29" data-fill-palette-color="accent"></path><path d="M68.108 72.783c0.406 0 0.609-0.193 0.609-0.239s-0.203-0.239-0.609-0.239c-0.405 0-0.608 0.193-0.608 0.239S67.703 72.783 68.108 72.783z" fill="#9d5c29" data-fill-palette-color="accent"></path><path d="M63.674 72.783c0.405 0 0.608-0.193 0.608-0.239s-0.203-0.239-0.608-0.239-0.608 0.193-0.608 0.239S63.269 72.783 63.674 72.783z" fill="#9d5c29" data-fill-palette-color="accent"></path><path d="M59.239 72.783c0.405 0 0.608-0.193 0.608-0.239s-0.203-0.239-0.608-0.239-0.608 0.193-0.608 0.239S58.834 72.783 59.239 72.783z" fill="#9d5c29" data-fill-palette-color="accent"></path><path d="M54.805 72.783c0.405 0 0.608-0.193 0.608-0.239s-0.203-0.239-0.608-0.239c-0.406 0-0.609 0.193-0.609 0.239S54.398 72.783 54.805 72.783z" fill="#9d5c29" data-fill-palette-color="accent"></path><path d="M50.369 72.783c0.406 0 0.609-0.193 0.609-0.239s-0.203-0.239-0.609-0.239c-0.405 0-0.608 0.193-0.608 0.239S49.964 72.783 50.369 72.783z" fill="#9d5c29" data-fill-palette-color="accent"></path><path d="M45.935 72.783c0.406 0 0.609-0.193 0.609-0.239s-0.203-0.239-0.609-0.239c-0.405 0-0.608 0.193-0.608 0.239S45.529 72.783 45.935 72.783z" fill="#9d5c29" data-fill-palette-color="accent"></path><path d="M41.5 72.783c0.405 0 0.608-0.193 0.608-0.239s-0.203-0.239-0.608-0.239-0.608 0.193-0.608 0.239S41.095 72.783 41.5 72.783z" fill="#9d5c29" data-fill-palette-color="accent"></path><path d="M37.065 72.783c0.405 0 0.608-0.193 0.608-0.239s-0.203-0.239-0.608-0.239c-0.406 0-0.609 0.193-0.609 0.239S36.659 72.783 37.065 72.783z" fill="#9d5c29" data-fill-palette-color="accent"></path><path d="M32.631 72.783c0.405 0 0.608-0.193 0.608-0.239s-0.203-0.239-0.608-0.239c-0.406 0-0.609 0.193-0.609 0.239S32.225 72.783 32.631 72.783z" fill="#9d5c29" data-fill-palette-color="accent"></path><path d="M70.326 76c-0.405 0-0.608 0.193-0.608 0.239 0 0.045 0.203 0.239 0.608 0.239s0.608-0.193 0.608-0.239C70.935 76.193 70.731 76 70.326 76z" fill="#9d5c29" data-fill-palette-color="accent"></path><path d="M74.761 76c-0.405 0-0.608 0.193-0.608 0.239 0 0.045 0.203 0.239 0.608 0.239s0.608-0.193 0.608-0.239C75.369 76.193 75.166 76 74.761 76z" fill="#9d5c29" data-fill-palette-color="accent"></path><path d="M77.718 74.261c0.405 0 0.608-0.193 0.608-0.239 0-0.046-0.203-0.239-0.608-0.239-0.406 0-0.609 0.193-0.609 0.239C77.108 74.067 77.312 74.261 77.718 74.261z" fill="#9d5c29" data-fill-palette-color="accent"></path><path d="M76.979 79.696c-0.406 0-0.609 0.193-0.609 0.239 0 0.046 0.203 0.239 0.609 0.239 0.405 0 0.608-0.193 0.608-0.239C77.587 79.889 77.384 79.696 76.979 79.696z" fill="#9d5c29" data-fill-palette-color="accent"></path><path d="M72.544 79.696c-0.406 0-0.609 0.193-0.609 0.239 0 0.046 0.203 0.239 0.609 0.239 0.405 0 0.608-0.193 0.608-0.239C73.152 79.889 72.949 79.696 72.544 79.696z" fill="#9d5c29" data-fill-palette-color="accent"></path><path d="M68.108 79.696c-0.405 0-0.608 0.193-0.608 0.239 0 0.046 0.203 0.239 0.608 0.239 0.406 0 0.609-0.193 0.609-0.239C68.718 79.889 68.515 79.696 68.108 79.696z" fill="#9d5c29" data-fill-palette-color="accent"></path><path d="M63.674 79.696c-0.405 0-0.608 0.193-0.608 0.239 0 0.046 0.203 0.239 0.608 0.239s0.608-0.193 0.608-0.239C64.282 79.889 64.079 79.696 63.674 79.696z" fill="#9d5c29" data-fill-palette-color="accent"></path><path d="M58.631 79.935c0 0.046 0.203 0.239 0.608 0.239s0.608-0.193 0.608-0.239c0-0.045-0.203-0.239-0.608-0.239S58.631 79.889 58.631 79.935z" fill="#9d5c29" data-fill-palette-color="accent"></path><path d="M53.456 79.935c0 0.046 0.203 0.239 0.609 0.239 0.405 0 0.608-0.193 0.608-0.239 0-0.045-0.203-0.239-0.608-0.239C53.659 79.696 53.456 79.889 53.456 79.935z" fill="#9d5c29" data-fill-palette-color="accent"></path><path d="M49.021 79.935c0 0.046 0.203 0.239 0.609 0.239 0.405 0 0.608-0.193 0.608-0.239 0-0.045-0.203-0.239-0.608-0.239C49.225 79.696 49.021 79.889 49.021 79.935z" fill="#9d5c29" data-fill-palette-color="accent"></path><path d="M44.456 79.696c-0.405 0-0.608 0.193-0.608 0.239 0 0.046 0.203 0.239 0.608 0.239 0.406 0 0.609-0.193 0.609-0.239C45.065 79.889 44.862 79.696 44.456 79.696z" fill="#9d5c29" data-fill-palette-color="accent"></path><path d="M40.631 79.935c0-0.045-0.203-0.239-0.609-0.239-0.405 0-0.608 0.193-0.608 0.239 0 0.046 0.203 0.239 0.608 0.239C40.428 80.174 40.631 79.98 40.631 79.935z" fill="#9d5c29" data-fill-palette-color="accent"></path><path d="M35.587 79.696c-0.405 0-0.608 0.193-0.608 0.239 0 0.046 0.203 0.239 0.608 0.239s0.608-0.193 0.608-0.239C36.195 79.889 35.992 79.696 35.587 79.696z" fill="#9d5c29" data-fill-palette-color="accent"></path><path d="M30.413 79.696c-0.405 0-0.608 0.193-0.608 0.239 0 0.046 0.203 0.239 0.608 0.239s0.608-0.193 0.608-0.239C31.021 79.889 30.818 79.696 30.413 79.696z" fill="#9d5c29" data-fill-palette-color="accent"></path><path d="M25.979 79.696c-0.406 0-0.609 0.193-0.609 0.239 0 0.046 0.203 0.239 0.609 0.239 0.405 0 0.608-0.193 0.608-0.239C26.587 79.889 26.384 79.696 25.979 79.696z" fill="#9d5c29" data-fill-palette-color="accent"></path><path d="M65.892 76c-0.406 0-0.609 0.193-0.609 0.239 0 0.045 0.203 0.239 0.609 0.239 0.405 0 0.608-0.193 0.608-0.239C66.5 76.193 66.297 76 65.892 76z" fill="#9d5c29" data-fill-palette-color="accent"></path><path d="M61.718 76.239c0-0.046-0.203-0.239-0.609-0.239-0.405 0-0.608 0.193-0.608 0.239 0 0.045 0.203 0.239 0.608 0.239C61.515 76.478 61.718 76.285 61.718 76.239z" fill="#9d5c29" data-fill-palette-color="accent"></path><path d="M56.392 76c-0.406 0-0.609 0.193-0.609 0.239 0 0.045 0.203 0.239 0.609 0.239 0.405 0 0.608-0.193 0.608-0.239C57 76.193 56.797 76 56.392 76z" fill="#9d5c29" data-fill-palette-color="accent"></path><path d="M51.848 76c-0.405 0-0.608 0.193-0.608 0.239 0 0.045 0.203 0.239 0.608 0.239s0.608-0.193 0.608-0.239C52.456 76.193 52.253 76 51.848 76z" fill="#9d5c29" data-fill-palette-color="accent"></path><path d="M47.413 76c-0.405 0-0.608 0.193-0.608 0.239 0 0.045 0.203 0.239 0.608 0.239s0.608-0.193 0.608-0.239C48.021 76.193 47.818 76 47.413 76z" fill="#9d5c29" data-fill-palette-color="accent"></path><path d="M42.239 76c-0.405 0-0.608 0.193-0.608 0.239 0 0.045 0.203 0.239 0.608 0.239s0.608-0.193 0.608-0.239C42.848 76.193 42.645 76 42.239 76z" fill="#9d5c29" data-fill-palette-color="accent"></path><path d="M37.805 76c-0.406 0-0.609 0.193-0.609 0.239 0 0.045 0.203 0.239 0.609 0.239 0.405 0 0.608-0.193 0.608-0.239C38.413 76.193 38.21 76 37.805 76z" fill="#9d5c29" data-fill-palette-color="accent"></path><path d="M33.369 76c-0.405 0-0.608 0.193-0.608 0.239 0 0.045 0.203 0.239 0.608 0.239 0.406 0 0.609-0.193 0.609-0.239C33.979 76.193 33.775 76 33.369 76z" fill="#9d5c29" data-fill-palette-color="accent"></path><path d="M29.544 76.239c0-0.046-0.203-0.239-0.609-0.239-0.405 0-0.608 0.193-0.608 0.239 0 0.045 0.203 0.239 0.608 0.239C29.341 76.478 29.544 76.285 29.544 76.239z" fill="#9d5c29" data-fill-palette-color="accent"></path><path d="M70.565 47.174H75c0.276 0 0.5-0.224 0.5-0.5v-2.957c0-0.276-0.224-0.5-0.5-0.5h-4.435c-0.276 0-0.5 0.224-0.5 0.5v0.992c-0.022-0.003-0.042-0.013-0.065-0.013h-7.288H40.244 32.5c-0.023 0-0.043 0.01-0.065 0.013v-0.992c0-0.276-0.224-0.5-0.5-0.5H27.5c-0.276 0-0.5 0.224-0.5 0.5v2.957c0 0.276 0.224 0.5 0.5 0.5h4.435c0.276 0 0.5-0.224 0.5-0.5v-0.991c0.022 0.003 0.042 0.013 0.065 0.013h7.398c0.191 0.528 0.409 1.041 0.665 1.529l-5.337 3.081c-0.239 0.138-0.321 0.444-0.183 0.683 0.092 0.161 0.261 0.25 0.433 0.25 0.085 0 0.171-0.021 0.25-0.067l5.337-3.081c0.206 0.326 0.429 0.638 0.663 0.941l-4.723 3.963c-0.212 0.177-0.239 0.493-0.062 0.704 0.099 0.118 0.24 0.179 0.383 0.179 0.113 0 0.228-0.039 0.321-0.117l4.723-3.963c0.259 0.285 0.531 0.555 0.814 0.813l-3.963 4.723c-0.178 0.211-0.15 0.527 0.062 0.704 0.094 0.079 0.208 0.117 0.321 0.117 0.143 0 0.284-0.061 0.383-0.179l3.963-4.723c0.304 0.235 0.616 0.457 0.941 0.663l-3.081 5.336c-0.139 0.239-0.057 0.545 0.183 0.683 0.079 0.045 0.165 0.067 0.25 0.067 0.172 0 0.341-0.089 0.433-0.25l3.081-5.336c0.34 0.178 0.687 0.342 1.043 0.488l-2.107 5.788c-0.095 0.259 0.039 0.546 0.299 0.641 0.057 0.021 0.114 0.03 0.171 0.03 0.204 0 0.396-0.126 0.47-0.329l2.108-5.79c0.364 0.116 0.736 0.211 1.113 0.292l-1.071 6.074c-0.048 0.272 0.134 0.531 0.405 0.579 0.029 0.005 0.059 0.008 0.088 0.008 0.237 0 0.448-0.17 0.491-0.413l1.071-6.076c0.377 0.05 0.759 0.082 1.145 0.098v6.172c0 0.276 0.224 0.5 0.5 0.5s0.5-0.224 0.5-0.5v-6.172c0.386-0.016 0.768-0.047 1.145-0.098l1.071 6.076c0.043 0.243 0.254 0.413 0.491 0.413 0.029 0 0.059-0.002 0.088-0.008 0.271-0.048 0.453-0.307 0.405-0.579l-1.07-6.074c0.377-0.082 0.749-0.177 1.113-0.292l2.107 5.79c0.074 0.203 0.266 0.329 0.47 0.329 0.057 0 0.114-0.01 0.171-0.03 0.26-0.094 0.394-0.381 0.299-0.641l-2.106-5.788c0.356-0.146 0.703-0.31 1.043-0.488l3.081 5.336c0.092 0.161 0.261 0.25 0.433 0.25 0.085 0 0.171-0.021 0.25-0.067 0.239-0.138 0.321-0.444 0.183-0.683l-3.081-5.336c0.325-0.205 0.637-0.428 0.941-0.663l3.962 4.723c0.099 0.118 0.24 0.179 0.383 0.179 0.113 0 0.228-0.039 0.321-0.117 0.212-0.177 0.239-0.493 0.062-0.704l-3.963-4.723c0.283-0.258 0.555-0.529 0.813-0.813l4.723 3.963c0.094 0.079 0.208 0.117 0.321 0.117 0.143 0 0.284-0.061 0.383-0.179 0.178-0.211 0.15-0.527-0.062-0.704l-4.724-3.963c0.233-0.303 0.457-0.615 0.662-0.941l5.336 3.081c0.079 0.045 0.165 0.067 0.25 0.067 0.172 0 0.341-0.089 0.433-0.25 0.139-0.239 0.057-0.545-0.183-0.683l-5.337-3.081c0.255-0.488 0.473-1.001 0.664-1.529H70c0.023 0 0.043-0.01 0.065-0.013v0.991C70.065 46.95 70.289 47.174 70.565 47.174zM71.065 44.217H74.5v1.957h-3.435V44.217zM31.435 46.174H28v-1.957h3.435V46.174z" fill="#9d5c29" data-fill-palette-color="accent"></path><path d="M73.892 34.152h-2.696v0.978c0 0.276-0.224 0.5-0.5 0.5h-4.435c-0.276 0-0.5-0.224-0.5-0.5v-0.978H37.195v0.978c0 0.276-0.224 0.5-0.5 0.5h-4.435c-0.276 0-0.5-0.224-0.5-0.5v-0.978h-2.695V42h44.826V34.152z" fill="#9d5c29" data-fill-palette-color="accent"></path><path d="M31.761 32.174c0-0.276 0.224-0.5 0.5-0.5h4.435c0.276 0 0.5 0.224 0.5 0.5v0.979h28.565v-0.979c0-0.276 0.224-0.5 0.5-0.5h4.435c0.276 0 0.5 0.224 0.5 0.5v0.979h2.696V10.5H29.065v22.652h2.695V32.174zM32.261 14.674h38.435c0.276 0 0.5 0.224 0.5 0.5s-0.224 0.5-0.5 0.5H32.261c-0.276 0-0.5-0.224-0.5-0.5S31.984 14.674 32.261 14.674zM32.261 17.63h38.435c0.276 0 0.5 0.224 0.5 0.5s-0.224 0.5-0.5 0.5H32.261c-0.276 0-0.5-0.224-0.5-0.5S31.984 17.63 32.261 17.63zM32.261 20.587h38.435c0.276 0 0.5 0.224 0.5 0.5s-0.224 0.5-0.5 0.5H32.261c-0.276 0-0.5-0.224-0.5-0.5S31.984 20.587 32.261 20.587zM32.261 23.543h38.435c0.276 0 0.5 0.224 0.5 0.5s-0.224 0.5-0.5 0.5H32.261c-0.276 0-0.5-0.224-0.5-0.5S31.984 23.543 32.261 23.543z" fill="#9d5c29" data-fill-palette-color="accent"></path><rect x="32.761" y="32.674" width="3.435" height="1.957" fill="#9d5c29" data-fill-palette-color="accent"></rect><rect x="66.761" y="32.674" width="3.435" height="1.957" fill="#9d5c29" data-fill-palette-color="accent"></rect></svg></g></g></svg></g><defs><mask id="b6cd4f00-0292-4c94-a718-ac424d66bc9a"><rect width="640" height="400" fill="white"></rect><rect width="348.05760000000004" height="67.31677771179747" fill="black" y="89.94161114410126" x="23.731199999999973" id="transform-me"></rect></mask></defs></svg><rect width="395.52" height="247.2" fill="none" stroke="none" visibility="hidden"></rect></g></svg></g></svg>